# xmcd
#
# Track frame offsets: 
#        150
#        101165
#        101847
#        156118
#        175383
#
# Disc length: 2694 seconds
#
# Revision: 0
# Processed by: cddbd v1.5.2PL0 Copyright (c) Steve Scherf et al.
# Submitted via: ExactAudioCopy v0.99pb4
#
DISCID=3d0a8405
DTITLE=Fleetwood Mac - Live In New Orleans Jan 31 1970 Part Two
DYEAR=1970
DGENRE=Rock
TTITLE0=Rattlesnake Shake
TTITLE1=Chat
TTITLE2=Coming Your Way
TTITLE3=Tiger
TTITLE4=Twist And Shout
EXTD=
EXTT0=
EXTT1=
EXTT2=
EXTT3=
EXTT4=
PLAYORDER=
